<svg xmlns="http://www.w3.org/2000/svg" viewBox="0 0 1100 620" width="1100" height="620">
<defs>
  <linearGradient id="feat-grad" x1="0" y1="0" x2="1" y2="1">
    <stop offset="0%" stop-color="#0f172a"/>
    <stop offset="100%" stop-color="#1e293b"/>
  </linearGradient>
</defs>
<rect width="1100" height="620" rx="24" fill="url(#feat-grad)"/>
<rect width="1100" height="620" rx="24" fill="none" stroke="#334155" stroke-width="1"/>

<!-- pill -->
<rect x="475.0" y="58" width="150" height="28" rx="14" fill="rgba(56, 189, 248, 0.12)" stroke="#38bdf8" stroke-opacity="0.4" stroke-width="1"/>
<text x="550.0" y="76" text-anchor="middle" fill="#38bdf8" font-family="Inter, -apple-system, BlinkMacSystemFont, 'Segoe UI', system-ui, sans-serif" font-size="11" font-weight="700" letter-spacing="2">PRODUCTION-READY</text>

<!-- title -->
<text x="550.0" y="135" text-anchor="middle" fill="#ffffff" font-family="Inter, -apple-system, BlinkMacSystemFont, 'Segoe UI', system-ui, sans-serif" font-size="36" font-weight="800" letter-spacing="-0.5">Key Features</text>
<text x="550.0" y="175" text-anchor="middle" fill="#94a3b8" font-family="Inter, -apple-system, BlinkMacSystemFont, 'Segoe UI', system-ui, sans-serif" font-size="15">Six engineered capabilities that take RAG from prototype to production.</text>

<!-- 6 cards in 2x3 grid -->

<rect x="44.0" y="220" width="320" height="165" rx="14" fill="#ffffff"/>
<!-- top color stripe (rounded only on top corners via clip) -->
<defs>
  <clipPath id="stripe-44.0-220">
    <rect x="44.0" y="220" width="320" height="18" rx="14"/>
  </clipPath>
</defs>
<rect x="44.0" y="220" width="320" height="4" fill="#D22128" clip-path="url(#stripe-44.0-220)"/>
<!-- icon -->
<g transform="translate(68.0,250) scale(1.5000)" fill="none" stroke="#D22128" stroke-width="1.8" stroke-linecap="round" stroke-linejoin="round"><path d="M15.5 2H8.6c-.4 0-.8.2-1.1.5-.3.3-.5.7-.5 1.1v12.8c0 .4.2.8.5 1.1.3.3.7.5 1.1.5h9.8c.4 0 .8-.2 1.1-.5.3-.3.5-.7.5-1.1V6.5L15.5 2z"/><polyline points="15,2 15,7 20,7"/><path d="M4 7v13c0 .5.2 1 .6 1.4.4.4.9.6 1.4.6h10"/></g>
<!-- title -->
<text x="68.0" y="314" fill="#0f172a" font-family="Inter, -apple-system, BlinkMacSystemFont, 'Segoe UI', system-ui, sans-serif" font-size="17" font-weight="800">Universal Ingestion</text>
<!-- description -->
<text x="68.0" y="340" fill="#475569" font-family="Inter, -apple-system, BlinkMacSystemFont, 'Segoe UI', system-ui, sans-serif" font-size="13">
  <tspan x="68.0" dy="0">PDF, DOCX, HTML, TXT, RTF, ODT via</tspan><tspan x="68.0" dy="17">Apache Tika. One parsing layer.</tspan>
</text>

<rect x="390.0" y="220" width="320" height="165" rx="14" fill="#ffffff"/>
<!-- top color stripe (rounded only on top corners via clip) -->
<defs>
  <clipPath id="stripe-390.0-220">
    <rect x="390.0" y="220" width="320" height="18" rx="14"/>
  </clipPath>
</defs>
<rect x="390.0" y="220" width="320" height="4" fill="#2563EB" clip-path="url(#stripe-390.0-220)"/>
<!-- icon -->
<g transform="translate(414.0,250) scale(1.5000)" fill="none" stroke="#2563EB" stroke-width="1.8" stroke-linecap="round" stroke-linejoin="round"><rect x="5.5" y="11" width="13" height="9" rx="1.5"/><path d="M8.5 11V8a3.5 3.5 0 0 1 7 0v3"/><circle cx="12" cy="14.5" r="1.2"/><path d="M12 15.7v1.6"/></g>
<!-- title -->
<text x="414.0" y="314" fill="#0f172a" font-family="Inter, -apple-system, BlinkMacSystemFont, 'Segoe UI', system-ui, sans-serif" font-size="17" font-weight="800">Session Isolation</text>
<!-- description -->
<text x="414.0" y="340" fill="#475569" font-family="Inter, -apple-system, BlinkMacSystemFont, 'Segoe UI', system-ui, sans-serif" font-size="13">
  <tspan x="414.0" dy="0">Per-session ChromaDB namespacing.</tspan><tspan x="414.0" dy="17">Zero cross-user data leakage.</tspan>
</text>

<rect x="736.0" y="220" width="320" height="165" rx="14" fill="#ffffff"/>
<!-- top color stripe (rounded only on top corners via clip) -->
<defs>
  <clipPath id="stripe-736.0-220">
    <rect x="736.0" y="220" width="320" height="18" rx="14"/>
  </clipPath>
</defs>
<rect x="736.0" y="220" width="320" height="4" fill="#10B981" clip-path="url(#stripe-736.0-220)"/>
<!-- icon -->
<g transform="translate(760.0,250) scale(1.5000)" fill="none" stroke="#10B981" stroke-width="1.8" stroke-linecap="round" stroke-linejoin="round"><path d="M4 7h16"/><path d="M18 7l-1 12.5a2 2 0 0 1-2 2H9a2 2 0 0 1-2-2L6 7"/><path d="M9.5 7V5a1.5 1.5 0 0 1 1.5-1.5h2A1.5 1.5 0 0 1 14.5 5v2"/><path d="M14 12 L17 14.5 L14 17" /><path d="M17 14.5 H12" /></g>
<!-- title -->
<text x="760.0" y="314" fill="#0f172a" font-family="Inter, -apple-system, BlinkMacSystemFont, 'Segoe UI', system-ui, sans-serif" font-size="17" font-weight="800">Self-Cleaning Storage</text>
<!-- description -->
<text x="760.0" y="340" fill="#475569" font-family="Inter, -apple-system, BlinkMacSystemFont, 'Segoe UI', system-ui, sans-serif" font-size="13">
  <tspan x="760.0" dy="0">Daily cron job purges expired</tspan><tspan x="760.0" dy="17">sessions and orphaned vectors.</tspan>
</text>

<rect x="44.0" y="409" width="320" height="165" rx="14" fill="#ffffff"/>
<!-- top color stripe (rounded only on top corners via clip) -->
<defs>
  <clipPath id="stripe-44.0-409">
    <rect x="44.0" y="409" width="320" height="18" rx="14"/>
  </clipPath>
</defs>
<rect x="44.0" y="409" width="320" height="4" fill="#7C3AED" clip-path="url(#stripe-44.0-409)"/>
<!-- icon -->
<g transform="translate(68.0,439) scale(1.5000)" fill="none" stroke="#7C3AED" stroke-width="1.8" stroke-linecap="round" stroke-linejoin="round"><rect x="8" y="8" width="13" height="13" rx="2"/><path d="M16 8V5.5A1.5 1.5 0 0 0 14.5 4H4.5A1.5 1.5 0 0 0 3 5.5v10A1.5 1.5 0 0 0 4.5 17H8"/><line x1="3" y1="3" x2="21" y2="21" stroke-width="2.2"/></g>
<!-- title -->
<text x="68.0" y="503" fill="#0f172a" font-family="Inter, -apple-system, BlinkMacSystemFont, 'Segoe UI', system-ui, sans-serif" font-size="17" font-weight="800">Smart Deduplication</text>
<!-- description -->
<text x="68.0" y="529" fill="#475569" font-family="Inter, -apple-system, BlinkMacSystemFont, 'Segoe UI', system-ui, sans-serif" font-size="13">
  <tspan x="68.0" dy="0">Hash-based ingestion checks.</tspan><tspan x="68.0" dy="17">Identical content indexed once.</tspan>
</text>

<rect x="390.0" y="409" width="320" height="165" rx="14" fill="#ffffff"/>
<!-- top color stripe (rounded only on top corners via clip) -->
<defs>
  <clipPath id="stripe-390.0-409">
    <rect x="390.0" y="409" width="320" height="18" rx="14"/>
  </clipPath>
</defs>
<rect x="390.0" y="409" width="320" height="4" fill="#F59E0B" clip-path="url(#stripe-390.0-409)"/>
<!-- icon -->
<g transform="translate(414.0,439) scale(1.5000)" fill="none" stroke="#F59E0B" stroke-width="1.8" stroke-linecap="round" stroke-linejoin="round"><circle cx="12" cy="13" r="8"/><path d="M12 13 L16 9" stroke-width="2.4"/><circle cx="12" cy="13" r="1.2" fill="#F59E0B"/><line x1="12" y1="6" x2="12" y2="7"/><line x1="19" y1="13" x2="18" y2="13"/><line x1="6" y1="13" x2="5" y2="13"/></g>
<!-- title -->
<text x="414.0" y="503" fill="#0f172a" font-family="Inter, -apple-system, BlinkMacSystemFont, 'Segoe UI', system-ui, sans-serif" font-size="17" font-weight="800">Abuse-Proof Uploads</text>
<!-- description -->
<text x="414.0" y="529" fill="#475569" font-family="Inter, -apple-system, BlinkMacSystemFont, 'Segoe UI', system-ui, sans-serif" font-size="13">
  <tspan x="414.0" dy="0">Hard cap of 5 documents per session.</tspan><tspan x="414.0" dy="17">Storage exhaustion blocked.</tspan>
</text>

<rect x="736.0" y="409" width="320" height="165" rx="14" fill="#ffffff"/>
<!-- top color stripe (rounded only on top corners via clip) -->
<defs>
  <clipPath id="stripe-736.0-409">
    <rect x="736.0" y="409" width="320" height="18" rx="14"/>
  </clipPath>
</defs>
<rect x="736.0" y="409" width="320" height="4" fill="#3776AB" clip-path="url(#stripe-736.0-409)"/>
<!-- icon -->
<g transform="translate(760.0,439) scale(1.5000)"><path fill="#3776AB" d="M11.6 2c-4.6 0-4.3 2-4.3 2v2.1h4.4v.6H5.5S2.6 6.4 2.6 11s2.5 4.5 2.5 4.5h1.5v-2.2s-.1-2.5 2.4-2.5h4.4s2.4 0 2.4-2.3V4.3S15.8 2 11.6 2zm-2.4 1.4c.4 0 .8.3.8.8s-.4.8-.8.8-.8-.3-.8-.8.3-.8.8-.8z"/><path fill="#3776AB" opacity="0.7" d="M12.4 22c4.6 0 4.3-2 4.3-2v-2.1h-4.4v-.6h6.2s2.9.3 2.9-4.3-2.5-4.5-2.5-4.5h-1.5v2.2s.1 2.5-2.4 2.5h-4.4s-2.4 0-2.4 2.3v4.2S8.2 22 12.4 22zm2.4-1.4c-.4 0-.8-.3-.8-.8s.4-.8.8-.8.8.3.8.8-.3.8-.8.8z"/></g>
<!-- title -->
<text x="760.0" y="503" fill="#0f172a" font-family="Inter, -apple-system, BlinkMacSystemFont, 'Segoe UI', system-ui, sans-serif" font-size="17" font-weight="800">One Pip Install</text>
<!-- description -->
<text x="760.0" y="529" fill="#475569" font-family="Inter, -apple-system, BlinkMacSystemFont, 'Segoe UI', system-ui, sans-serif" font-size="13">
  <tspan x="760.0" dy="0">Shipped as rag_pipeline-3.0.</tspan><tspan x="760.0" dy="17">Drop into any backend.</tspan>
</text>

</svg>
