<svg xmlns="http://www.w3.org/2000/svg" viewBox="0 0 1100 480" width="1100" height="480">
<defs>
  <linearGradient id="bg-grad" x1="0" y1="0" x2="0" y2="1">
    <stop offset="0%" stop-color="#0f172a"/>
    <stop offset="100%" stop-color="#0b1120"/>
  </linearGradient>
</defs>
<rect width="1100" height="480" rx="24" fill="url(#bg-grad)"/>
<rect width="1100" height="480" rx="24" fill="none" stroke="#1e293b" stroke-width="1"/>

<!-- Header -->
<text x="550.0" y="78" text-anchor="middle" fill="#ffffff" font-family="Inter, -apple-system, BlinkMacSystemFont, 'Segoe UI', system-ui, sans-serif" font-size="30" font-weight="800" letter-spacing="-0.5">Why Standard RAG Fails in Production</text>
<text x="550.0" y="112" text-anchor="middle" fill="#94a3b8" font-family="Inter, -apple-system, BlinkMacSystemFont, 'Segoe UI', system-ui, sans-serif" font-size="15">Transitioning from notebook prototypes to reliable, multi-tenant services exposes fundamental flaws</text>
<text x="550.0" y="132" text-anchor="middle" fill="#94a3b8" font-family="Inter, -apple-system, BlinkMacSystemFont, 'Segoe UI', system-ui, sans-serif" font-size="15">in the standard AI stack.</text>

<!-- 3 cards -->

<defs>
  <clipPath id="clip-44.0-168">
    <rect x="44.0" y="168" width="320" height="270" rx="16"/>
  </clipPath>
</defs>
<g clip-path="url(#clip-44.0-168)">
  <!-- card base -->
  <rect x="44.0" y="168" width="320" height="270" fill="#1e293b"/>
  <!-- problem section (top) with subtle red tint -->
  <rect x="44.0" y="168" width="320" height="135.0" fill="#2a1d22"/>
  <!-- paradigm section (bottom) with subtle cyan tint -->
  <rect x="44.0" y="303.0" width="320" height="135.0" fill="#1a2436"/>
  <!-- divider line -->
  <line x1="44.0" y1="303.0" x2="364.0" y2="303.0" stroke="#334155" stroke-width="1"/>
</g>
<!-- card border on top -->
<rect x="44.0" y="168" width="320" height="270" rx="16" fill="none" stroke="#334155" stroke-width="1"/>

<!-- icon -->
<g transform="translate(66.0,190) scale(0.8333)" fill="none" stroke="#ef4444" stroke-width="2" stroke-linecap="round" stroke-linejoin="round"><rect x="3" y="3" width="18" height="18" rx="3.5"/><circle cx="8.5" cy="8.5" r="1.4" fill="#ef4444"/><circle cx="15.5" cy="8.5" r="1.4" fill="#ef4444"/><circle cx="12" cy="15.5" r="1.4" fill="#ef4444"/><line x1="8.5" y1="8.5" x2="15.5" y2="8.5"/><line x1="9.5" y1="9.5" x2="11.5" y2="14.5"/><line x1="14.5" y1="9.5" x2="12.5" y2="14.5"/></g>
<!-- title -->
<text x="96.0" y="205" fill="#ffffff" font-family="Inter, -apple-system, BlinkMacSystemFont, 'Segoe UI', system-ui, sans-serif" font-size="15" font-weight="700">The Knowledge Gap</text>
<!-- problem description -->
<text x="66.0" y="238" fill="#94a3b8" font-family="Inter, -apple-system, BlinkMacSystemFont, 'Segoe UI', system-ui, sans-serif" font-size="12.5">
  <tspan x="66.0" dy="0">Models hallucinate when questions reach</tspan>
  <tspan x="66.0" dy="18">beyond their fixed training data.</tspan>
</text>

<!-- paradigm label -->
<text x="66.0" y="335.0" fill="#38bdf8" font-family="Inter, -apple-system, BlinkMacSystemFont, 'Segoe UI', system-ui, sans-serif" font-size="10" font-weight="700" letter-spacing="1.5">INTELLIQA PARADIGM</text>
<!-- paradigm text -->
<text x="66.0" y="361.0" fill="#cbd5e1" font-family="Inter, -apple-system, BlinkMacSystemFont, 'Segoe UI', system-ui, sans-serif" font-size="12.5">
  <tspan x="66.0" dy="0">Strictly bounds generation to your</tspan>
  <tspan x="66.0" dy="18">retrieved document context only.</tspan>
</text>



<defs>
  <clipPath id="clip-390.0-168">
    <rect x="390.0" y="168" width="320" height="270" rx="16"/>
  </clipPath>
</defs>
<g clip-path="url(#clip-390.0-168)">
  <!-- card base -->
  <rect x="390.0" y="168" width="320" height="270" fill="#1e293b"/>
  <!-- problem section (top) with subtle red tint -->
  <rect x="390.0" y="168" width="320" height="135.0" fill="#2a1d22"/>
  <!-- paradigm section (bottom) with subtle cyan tint -->
  <rect x="390.0" y="303.0" width="320" height="135.0" fill="#1a2436"/>
  <!-- divider line -->
  <line x1="390.0" y1="303.0" x2="710.0" y2="303.0" stroke="#334155" stroke-width="1"/>
</g>
<!-- card border on top -->
<rect x="390.0" y="168" width="320" height="270" rx="16" fill="none" stroke="#334155" stroke-width="1"/>

<!-- icon -->
<g transform="translate(412.0,190) scale(0.8333)" fill="none" stroke="#ef4444" stroke-width="2" stroke-linecap="round" stroke-linejoin="round"><rect x="3" y="4" width="18" height="6" rx="1.5"/><rect x="3" y="14" width="18" height="6" rx="1.5"/><circle cx="6.5" cy="7" r="0.4" fill="#ef4444"/><circle cx="6.5" cy="17" r="0.4" fill="#ef4444"/><path d="M14 6 L11 11 L13 11 L10 13"/></g>
<!-- title -->
<text x="442.0" y="205" fill="#ffffff" font-family="Inter, -apple-system, BlinkMacSystemFont, 'Segoe UI', system-ui, sans-serif" font-size="15" font-weight="700">The Prototype Trap</text>
<!-- problem description -->
<text x="412.0" y="238" fill="#94a3b8" font-family="Inter, -apple-system, BlinkMacSystemFont, 'Segoe UI', system-ui, sans-serif" font-size="12.5">
  <tspan x="412.0" dy="0">Notebook scripts fail under multi-tenant</tspan>
  <tspan x="412.0" dy="18">load and lack operational safety.</tspan>
</text>

<!-- paradigm label -->
<text x="412.0" y="335.0" fill="#38bdf8" font-family="Inter, -apple-system, BlinkMacSystemFont, 'Segoe UI', system-ui, sans-serif" font-size="10" font-weight="700" letter-spacing="1.5">INTELLIQA PARADIGM</text>
<!-- paradigm text -->
<text x="412.0" y="361.0" fill="#cbd5e1" font-family="Inter, -apple-system, BlinkMacSystemFont, 'Segoe UI', system-ui, sans-serif" font-size="12.5">
  <tspan x="412.0" dy="0">Ships as a robust, isolated Python wheel,</tspan>
  <tspan x="412.0" dy="18">production-ready by design.</tspan>
</text>



<defs>
  <clipPath id="clip-736.0-168">
    <rect x="736.0" y="168" width="320" height="270" rx="16"/>
  </clipPath>
</defs>
<g clip-path="url(#clip-736.0-168)">
  <!-- card base -->
  <rect x="736.0" y="168" width="320" height="270" fill="#1e293b"/>
  <!-- problem section (top) with subtle red tint -->
  <rect x="736.0" y="168" width="320" height="135.0" fill="#2a1d22"/>
  <!-- paradigm section (bottom) with subtle cyan tint -->
  <rect x="736.0" y="303.0" width="320" height="135.0" fill="#1a2436"/>
  <!-- divider line -->
  <line x1="736.0" y1="303.0" x2="1056.0" y2="303.0" stroke="#334155" stroke-width="1"/>
</g>
<!-- card border on top -->
<rect x="736.0" y="168" width="320" height="270" rx="16" fill="none" stroke="#334155" stroke-width="1"/>

<!-- icon -->
<g transform="translate(758.0,190) scale(0.8333)" fill="none" stroke="#ef4444" stroke-width="2" stroke-linecap="round" stroke-linejoin="round"><ellipse cx="9" cy="9" rx="6.5" ry="2.5"/><path d="M2.5 9 v3.5 c0 1.4 2.9 2.5 6.5 2.5 s6.5-1.1 6.5-2.5 v-3.5"/><ellipse cx="15" cy="15" rx="6.5" ry="2.5"/><path d="M8.5 15 v3.5 c0 1.4 2.9 2.5 6.5 2.5 s6.5-1.1 6.5-2.5 v-3.5"/></g>
<!-- title -->
<text x="788.0" y="205" fill="#ffffff" font-family="Inter, -apple-system, BlinkMacSystemFont, 'Segoe UI', system-ui, sans-serif" font-size="15" font-weight="700">The API Tax</text>
<!-- problem description -->
<text x="758.0" y="238" fill="#94a3b8" font-family="Inter, -apple-system, BlinkMacSystemFont, 'Segoe UI', system-ui, sans-serif" font-size="12.5">
  <tspan x="758.0" dy="0">Proprietary embedding APIs scale costs</tspan>
  <tspan x="758.0" dy="18">exponentially as documents grow.</tspan>
</text>

<!-- paradigm label -->
<text x="758.0" y="335.0" fill="#38bdf8" font-family="Inter, -apple-system, BlinkMacSystemFont, 'Segoe UI', system-ui, sans-serif" font-size="10" font-weight="700" letter-spacing="1.5">INTELLIQA PARADIGM</text>
<!-- paradigm text -->
<text x="758.0" y="361.0" fill="#cbd5e1" font-family="Inter, -apple-system, BlinkMacSystemFont, 'Segoe UI', system-ui, sans-serif" font-size="12.5">
  <tspan x="758.0" dy="0">Leverages local open-weight models,</tspan>
  <tspan x="758.0" dy="18">dropping bulk ingestion costs to zero.</tspan>
</text>

</svg>
